# xmcd
#
# Track frame offsets:
#	150
#	10436
#	23999
#	34257
#	44852
#	54701
#	72577
#	89747
#	105836
#	119533
#	129072
#	139644
#	151376
#	172763
#	186069
#	200126
#	212600
#	225942
#	236655
#	250067
#
# Disc length: 3515 seconds
#
# Revision: 4293525535
# Processed by: cddbd v1.5.2PL0 Copyright (c) Steve Scherf et al.
# Submitted via: EZCDAudioConverter 8.0.7.1
#
DISCID=170db914
DTITLE=John Mayall - London Blues (1993)
DYEAR=1993
DGENRE=Blues
TTITLE0=All My Life
TTITLE1=Ridin' On The L and N
TTITLE2=Eagle Eye
TTITLE3=It Hurts Me Too
TTITLE4=Double Trouble
TTITLE5=Sonny Boy Blew
TTITLE6=Broken Wings
TTITLE7=Oh, Pretty Woman
TTITLE8=The Death Of J.B. Lenoir
TTITLE9=Man Of Stone
TTITLE10=Checkin' Oh My Baby
TTITLE11=Suspicions (Part One)
TTITLE12=Jenny
TTITLE13=Picture On The Wall
TTITLE14=No Reply
TTITLE15=She's Too Young
TTITLE16=Sandy
TTITLE17=Walking On Sunset
TTITLE18=The Bear
TTITLE19=Fly Tomorrow
EXTD=
EXTT0=
EXTT1=
EXTT2=
EXTT3=
EXTT4=
EXTT5=
EXTT6=
EXTT7=
EXTT8=
EXTT9=
EXTT10=
EXTT11=
EXTT12=
EXTT13=
EXTT14=
EXTT15=
EXTT16=
EXTT17=
EXTT18=
EXTT19=
PLAYORDER=
